<svg width="30" height="31" viewBox="0 0 30 31" fill="none" xmlns="http://www.w3.org/2000/svg">
<path fill-rule="evenodd" clip-rule="evenodd" d="M15 3.5C11.6865 3.5 8.99998 6.1865 8.99998 9.5V11H7.49998C6.73498 11 6.093 11.5745 6.009 12.335L4.509 25.835C4.4625 26.258 4.59749 26.6825 4.88249 27.0005C5.16749 27.3185 5.57398 27.5 5.99998 27.5H24C24.426 27.5 24.8325 27.3185 25.1175 27.0005C25.4025 26.6825 25.5375 26.258 25.491 25.835L23.991 12.335C23.907 11.5745 23.265 11 22.5 11H21V9.5C21 6.1865 18.3135 3.5 15 3.5ZM18 11V9.5C18 7.8425 16.6575 6.5 15 6.5C13.3425 6.5 12 7.8425 12 9.5V11H18ZM8.99998 15.5C8.99998 14.672 9.67199 14 10.5 14C11.328 14 12 14.672 12 15.5C12 16.328 11.328 17 10.5 17C9.67199 17 8.99998 16.328 8.99998 15.5ZM19.5 14C18.672 14 18 14.672 18 15.5C18 16.328 18.672 17 19.5 17C20.328 17 21 16.328 21 15.5C21 14.672 20.328 14 19.5 14Z" fill="#222324"/>
</svg>
