<svg width="25" height="25" viewBox="0 0 25 25" fill="none" xmlns="http://www.w3.org/2000/svg">
<path d="M21.5 11.25H4M21.5 11.25C22.163 11.25 22.7989 11.5134 23.2678 11.9822C23.7366 12.4511 24 13.087 24 13.75V21.25C24 21.913 23.7366 22.5489 23.2678 23.0178C22.7989 23.4866 22.163 23.75 21.5 23.75H4C3.33696 23.75 2.70107 23.4866 2.23223 23.0178C1.76339 22.5489 1.5 21.913 1.5 21.25V13.75C1.5 13.087 1.76339 12.4511 2.23223 11.9822C2.70107 11.5134 3.33696 11.25 4 11.25M21.5 11.25V8.75C21.5 8.08696 21.2366 7.45107 20.7678 6.98223C20.2989 6.51339 19.663 6.25 19 6.25M4 11.25V8.75C4 8.08696 4.26339 7.45107 4.73223 6.98223C5.20107 6.51339 5.83696 6.25 6.5 6.25M19 6.25V3.75C19 3.08696 18.7366 2.45107 18.2678 1.98223C17.7989 1.51339 17.163 1.25 16.5 1.25H9C8.33696 1.25 7.70107 1.51339 7.23223 1.98223C6.76339 2.45107 6.5 3.08696 6.5 3.75V6.25M19 6.25H6.5" stroke="black" stroke-width="2" stroke-linecap="round" stroke-linejoin="round"/>
</svg>
