<svg width="22" height="27" viewBox="0 0 22 27" fill="none" xmlns="http://www.w3.org/2000/svg">
<path d="M10.9998 1.02197C14.4673 1.02197 17.2839 3.84314 17.2839 7.32959C17.2838 10.8159 14.4673 13.6372 10.9998 13.6372C7.53233 13.6371 4.71667 10.8159 4.71655 7.32959C4.71655 3.8432 7.53226 1.02208 10.9998 1.02197Z" stroke="black" stroke-width="1.78261"/>
<path d="M11 17.2026C13.7217 17.2026 16.1421 17.7576 17.8486 18.6138C19.6074 19.4962 20.3584 20.5516 20.3584 21.4536C20.3582 22.3555 19.6071 23.4102 17.8486 24.2925C16.1421 25.1486 13.7217 25.7036 11 25.7036C8.27832 25.7036 5.85793 25.1486 4.15137 24.2925C2.3929 23.4102 1.64184 22.3555 1.6416 21.4536C1.6416 20.5516 2.39259 19.4962 4.15137 18.6138C5.85793 17.7576 8.27832 17.2026 11 17.2026Z" stroke="black" stroke-width="1.78261"/>
</svg>
